<svg width="162px" height="53px" viewBox="0 0 162 53" version="1.1" xmlns="http://www.w3.org/2000/svg" xmlns:xlink="http://www.w3.org/1999/xlink">
    <defs>
        <polygon id="path-1" points="0 0.0616361394 46.1691811 0.0616361394 46.1691811 52.3125 0 52.3125"></polygon>
    </defs>
    <g id="-" stroke="none" stroke-width="1" fill="none" fill-rule="evenodd">
        <g id="02_PRUEBA_EH_Pagina_Lista_Comunidades_Mobile" transform="translate(-16.000000, -83.000000)">
            <g id="Group-7" transform="translate(0.000000, 71.000000)">
                <g id="Group-5" transform="translate(16.000000, 12.000000)">
                    <g id="Group-3">
                        <mask id="mask-2" fill="white">
                            <use xlink:href="#path-1"></use>
                        </mask>
                        <g id="Clip-2"></g>
                        <path d="M25.3052289,0.594960825 C24.0837767,-0.116138756 22.0848336,-0.116138756 20.8638778,0.594960825 L2.22097335,11.4511812 C0.99952114,12.1625311 -7.44485294e-05,13.9083669 -7.44485294e-05,15.3310667 L-7.44485294e-05,37.0432572 C-7.44485294e-05,38.4659569 0.99952114,40.2112922 2.22097335,40.9228923 L20.8638778,51.7791127 C22.0848336,52.4904626 24.0837767,52.4904626 25.3052289,51.7791127 L43.9483814,40.9228923 C45.1698336,40.2112922 46.1691811,38.4659569 46.1691811,37.0432572 L46.1691811,15.3310667 C46.1691811,13.9083669 45.1698336,12.1625311 43.9483814,11.4511812 L25.3052289,0.594960825 Z" id="Fill-1" fill="#87F96E" mask="url(#mask-2)"></path>
                    </g>
                    <g id="Group-36" transform="translate(5.062500, 6.750000)" fill="#062F4F">
                        <path d="M13.9245988,17.4844556 L13.9245988,17.4844556 L1.03258752,10.0731321 C0.800181458,10.5906777 0.667664824,11.1614524 0.658629599,11.7627149 L0.658629599,14.4156674 L0.658629599,15.9238218 L0.658629599,17.5204414 L0.658629599,22.5022243 L0.658629599,24.3120096 L0.658629599,26.8707493 C0.681719618,28.4008951 1.50467803,29.7378671 2.73020592,30.4848222 L16.0712177,38.1535441 C16.5327671,38.3854525 17.0412495,38.5353933 17.5790963,38.5891221 L17.5790963,33.592595 C16.9323248,33.5278706 16.3274667,33.3299487 15.7966472,33.0138236 L15.7775728,33.0033277 L6.55838058,27.7039203 L6.55838058,27.6999219 C6.0882979,27.3947923 5.71760269,26.7915305 5.71760269,26.314219 C5.71760269,25.8369075 6.0882979,25.6602273 6.55838058,25.8956343 L6.55838058,25.893885 L6.58899995,25.911628 C6.60205083,25.9183753 6.61434878,25.9241231 6.62739966,25.9313702 C6.64019956,25.9388672 6.65224653,25.9473639 6.66479545,25.9551108 L13.7481609,30.027003 L16.0644412,31.3587271 C16.5274965,31.591885 17.0387397,31.7428254 17.5790963,31.7968041 L17.5790963,26.8082739 C16.9634461,26.7467982 16.3869486,26.5578728 15.8749525,26.2669877 L15.8729447,26.2667378 L15.8388116,26.2472455 C15.8245058,26.2389987 15.8099491,26.2317516 15.7956433,26.2235048 C15.7911257,26.2207559 15.787361,26.2177571 15.7828434,26.2152581 L6.63643488,20.9568345 C6.62815259,20.9523363 6.62012128,20.9485877 6.61133704,20.9438396 C6.6035567,20.9390915 6.59527441,20.9335937 6.5872431,20.9285956 L6.55838058,20.912352 L6.55838058,20.9108526 C6.13999946,20.6432083 5.80946081,20.10717 5.80946081,19.6838371 C5.80946081,19.2602544 6.13999946,19.1050657 6.55838058,19.3182315 L6.55838058,19.3157325 L6.60907823,19.3444711 C6.60958019,19.3452208 6.6105841,19.3454708 6.61133704,19.3459706 C6.61234095,19.3467203 6.61334486,19.3472201 6.61434878,19.3477199 L15.9562695,24.7180993 C16.4476854,24.9832446 16.9960733,25.1561763 17.5790963,25.2144033 L17.5790963,25.0127329 L17.5790963,19.5851261 L13.9245988,17.4844556 Z M21.5731678,14.7687779 L6.38871913,6.03997466 L2.78893488,8.1091576 C2.27794271,8.40978889 1.83596962,8.81262983 1.48736052,9.28819204 L18.0085205,18.7859417 L22.911134,15.9678045 C22.5542426,15.4812466 22.0989677,15.0711585 21.5731678,14.7687779 L21.5731678,14.7687779 Z M20.1611629,24.6738667 C20.1852568,24.6598723 20.2118605,24.6466275 20.2372093,24.6331328 L23.7468923,22.6159294 L23.7468923,18.5585315 C23.7461394,18.5425378 23.7441316,18.5272938 23.7441316,18.5108003 C23.7441316,17.8890458 23.610862,17.2987789 23.3729344,16.7649897 L18.4673091,19.5851261 L18.4673091,25.2134037 C19.0779398,25.1504286 19.6519275,24.9632525 20.1611629,24.6738667 L20.1611629,24.6738667 Z M35.3769838,11.8049483 C35.3769838,11.1889415 35.245973,10.6036726 35.0123121,10.0736319 L29.7184231,13.1169302 C29.8895905,13.5042772 30.0047896,13.9213626 30.0552363,14.3581901 L30.0830949,14.4156674 L30.0830949,14.4943863 L30.0830949,14.7607811 C30.0838478,14.7927685 30.0863576,14.8240061 30.0863576,14.8559935 C30.0863576,14.8989765 30.0843498,14.9414598 30.0830949,14.9841929 L30.0830949,18.9733677 L30.0830949,20.5697373 L20.1634217,26.2722356 L20.1440963,26.2767338 C19.6396296,26.5606217 19.0716653,26.7450489 18.4673091,26.8072743 L18.4673091,31.7958045 C19.0701594,31.7335791 19.6368688,31.5501515 20.1405826,31.2672632 L30.0830949,25.5515202 L30.0830949,27.3613056 L30.0830949,32.3430884 L33.2165611,30.5417997 C33.2250944,30.5348024 33.2328747,30.5273054 33.2429138,30.5210579 C34.5201433,29.7713539 35.3769838,28.3869006 35.3769838,26.8037757 C35.3769838,26.7505467 35.3812504,26.7003166 35.3877759,26.6518357 L35.3877759,22.5022243 L35.3877759,17.5204414 L35.3877759,15.9238218 L35.3877759,14.4156674 L35.3877759,11.9463924 C35.3812504,11.9006605 35.3769838,11.8539289 35.3769838,11.8049483 L35.3769838,11.8049483 Z M20.1405826,33.0770486 L20.0976653,33.0967908 C19.6044926,33.3664343 19.0533439,33.5306195 18.4673091,33.5913455 L18.4673091,38.5881225 C19.0643869,38.5266467 19.6258258,38.3454683 20.1260259,38.0673281 L23.7489001,35.9846505 L23.7489001,31.0028676 L20.1405826,33.0770486 Z M33.4989119,8.25285086 L20.3049735,0.667845935 C20.2565347,0.647354026 20.2103546,0.62536271 20.1681903,0.60087238 C19.5347206,0.239515069 18.8003576,0.0328466753 18.0175557,0.0328466753 C17.1807935,0.0328466753 16.3987446,0.269003425 15.7369143,0.67834179 C15.6766795,0.715327186 15.6106722,0.747314555 15.5406492,0.776802911 L14.0520958,1.63271494 L12.7417372,2.38591752 L27.9091193,11.1049747 L27.9317074,11.1274658 C28.4529897,11.4298464 28.903998,11.838435 29.2576267,12.3219941 L34.5510136,9.27469737 C34.2606316,8.87760417 33.905246,8.53149084 33.4989119,8.25285086 L33.4989119,8.25285086 Z" id="Fill-35"></path>
                    </g>
                    <path d="M118.041107,20.8427962 C118.297608,20.8427962 118.523731,20.9305453 118.719482,21.1060462 C118.915233,21.2815471 119.013107,21.490795 119.013107,21.7337962 C119.013107,21.8687969 118.986107,21.9970456 118.932107,22.1185462 L113.302607,34.0660462 C113.221607,34.2550471 113.103483,34.4001707 112.948232,34.5014212 C112.792981,34.6026717 112.627608,34.6532962 112.452107,34.6532962 C112.209106,34.6532962 111.989733,34.572297 111.793982,34.4102962 C111.598231,34.2482954 111.500357,34.0457974 111.500357,33.8027962 C111.500357,33.6947956 111.534107,33.559797 111.601607,33.3977962 L112.998857,30.4210462 L109.090607,22.1185462 C109.036607,22.0105456 109.009607,21.8890469 109.009607,21.7540462 C109.009607,21.4975449 109.117606,21.2815471 109.333607,21.1060462 C109.549608,20.9305453 109.792606,20.8427962 110.062607,20.8427962 C110.467609,20.8427962 110.757856,21.0317943 110.933357,21.4097962 L114.072107,28.3757962 L117.190607,21.4300462 C117.271608,21.2275452 117.389731,21.0790467 117.544982,20.9845462 C117.700233,20.8900457 117.865606,20.8427962 118.041107,20.8427962 Z M66.0448929,20.7820462 C67.3543994,20.7820462 68.3297647,21.1127929 68.9710179,21.7742962 C69.6122711,22.4357995 69.9328929,23.4415394 69.9328929,24.7915462 L69.9328929,30.0362962 C69.9328929,30.3467977 69.8451437,30.5864203 69.6696429,30.7551712 C69.494142,30.923922 69.2511444,31.0082962 68.9406429,31.0082962 C68.6436414,31.0082962 68.4073937,30.9205471 68.2318929,30.7450462 C68.056392,30.5695453 67.9686429,30.3332977 67.9686429,30.0362962 L67.9686429,29.2870462 C67.7121416,29.854049 67.3307704,30.2894197 66.8245179,30.5931712 C66.3182653,30.8969227 65.7276462,31.0487962 65.0526429,31.0487962 C64.4046396,31.0487962 63.8106456,30.9171725 63.2706429,30.6539212 C62.7306402,30.3906699 62.3087694,30.0227985 62.0050179,29.5502962 C61.7012663,29.0777938 61.5493929,28.5512991 61.5493929,27.9707962 C61.5493929,27.2552926 61.735016,26.6916732 62.1062679,26.2799212 C62.4775197,25.8681691 63.0917636,25.5745471 63.9490179,25.3990462 C64.7403295,25.2370454 65.8048227,25.1498153 67.1425253,25.1373539 L67.9483929,25.1357962 L67.9483929,24.5485462 C67.9483929,23.7925424 67.7931444,23.2457979 67.4826429,22.9082962 C67.1721413,22.5707945 66.6726463,22.4020462 65.9841429,22.4020462 C65.5116405,22.4020462 65.0661449,22.4627956 64.6476429,22.5842962 C64.2291408,22.7057968 63.7701454,22.881295 63.2706429,23.1107962 C62.906141,23.3132962 62.6496436,23.4145462 62.5011429,23.4145462 C62.2986418,23.4145462 62.1332685,23.3402969 62.0050179,23.1917962 C61.8767672,23.0432954 61.8126429,22.8542973 61.8126429,22.6247962 C61.8126429,22.4222952 61.8700173,22.243422 61.9847679,22.0881712 C62.0995184,21.9329204 62.2851416,21.7810469 62.5416429,21.6325462 C63.0141452,21.3760449 63.5676397,21.170172 64.2021429,21.0149212 C64.836646,20.8596704 65.4508899,20.7820462 66.0448929,20.7820462 Z M94.6060714,20.7820462 C95.915578,20.7820462 96.8909432,21.1127929 97.5321964,21.7742962 C98.1734496,22.4357995 98.4940714,23.4415394 98.4940714,24.7915462 L98.4940714,30.0362962 C98.4940714,30.3467977 98.4063223,30.5864203 98.2308214,30.7551712 C98.0553206,30.923922 97.812323,31.0082962 97.5018214,31.0082962 C97.2048199,31.0082962 96.9685723,30.9205471 96.7930714,30.7450462 C96.6175706,30.5695453 96.5298214,30.3332977 96.5298214,30.0362962 L96.5298214,29.2870462 C96.2733201,29.854049 95.891949,30.2894197 95.3856964,30.5931712 C94.8794439,30.8969227 94.2888248,31.0487962 93.6138214,31.0487962 C92.9658182,31.0487962 92.3718241,30.9171725 91.8318214,30.6539212 C91.2918187,30.3906699 90.8699479,30.0227985 90.5661964,29.5502962 C90.2624449,29.0777938 90.1105714,28.5512991 90.1105714,27.9707962 C90.1105714,27.2552926 90.2961946,26.6916732 90.6674464,26.2799212 C91.0386983,25.8681691 91.6529421,25.5745471 92.5101964,25.3990462 C93.3015081,25.2370454 94.3660013,25.1498153 95.7037039,25.1373539 L96.5095714,25.1357962 L96.5095714,24.5485462 C96.5095714,23.7925424 96.354323,23.2457979 96.0438214,22.9082962 C95.7333199,22.5707945 95.2338249,22.4020462 94.5453214,22.4020462 C94.0728191,22.4020462 93.6273235,22.4627956 93.2088214,22.5842962 C92.7903193,22.7057968 92.3313239,22.881295 91.8318214,23.1107962 C91.4673196,23.3132962 91.2108222,23.4145462 91.0623214,23.4145462 C90.8598204,23.4145462 90.6944471,23.3402969 90.5661964,23.1917962 C90.4379458,23.0432954 90.3738214,22.8542973 90.3738214,22.6247962 C90.3738214,22.4222952 90.4311959,22.243422 90.5459464,22.0881712 C90.660697,21.9329204 90.8463201,21.7810469 91.1028214,21.6325462 C91.5753238,21.3760449 92.1288183,21.170172 92.7633214,21.0149212 C93.3978246,20.8596704 94.0120685,20.7820462 94.6060714,20.7820462 Z M104.571964,20.7820462 C105.111967,20.7820462 105.638462,20.8529205 106.151464,20.9946712 C106.664467,21.1364219 107.116712,21.3422948 107.508214,21.6122962 C107.953717,21.9092977 108.176464,22.2535442 108.176464,22.6450462 C108.176464,22.8610473 108.11234,23.0432954 107.984089,23.1917962 C107.855839,23.3402969 107.703965,23.4145462 107.528464,23.4145462 C107.406964,23.4145462 107.285465,23.3875464 107.163964,23.3335462 L106.998724,23.2525462 C106.937164,23.2201463 106.869125,23.1823464 106.794605,23.1391464 L106.677964,23.0702962 C106.313462,22.8542951 105.972591,22.6855468 105.655339,22.5640462 C105.338088,22.4425456 104.943217,22.3817962 104.470714,22.3817962 C103.903711,22.3817962 103.448091,22.503295 103.103839,22.7462962 C102.759588,22.9892974 102.587464,23.3200441 102.587464,23.7385462 C102.587464,24.1165481 102.746088,24.4101701 103.063339,24.6194212 C103.354153,24.8112346 103.880344,24.9945377 104.641924,25.1693351 L104.855464,25.2167962 C105.759969,25.4057971 106.468712,25.621795 106.981714,25.8647962 C107.494717,26.1077974 107.862588,26.4081694 108.085339,26.7659212 C108.30809,27.123673 108.419464,27.5792934 108.419464,28.1327962 C108.419464,29.0103006 108.051593,29.7156685 107.315839,30.2489212 C106.580086,30.7821738 105.59797,31.0487962 104.369464,31.0487962 C102.992457,31.0487962 101.865219,30.765299 100.987714,30.1982962 C100.744713,30.0497954 100.57259,29.894547 100.471339,29.7325462 C100.370089,29.5705454 100.319464,29.3882972 100.319464,29.1857962 C100.319464,28.9697951 100.380214,28.7875469 100.501714,28.6390462 C100.623215,28.4905454 100.778463,28.4162962 100.967464,28.4162962 C101.142965,28.4162962 101.419712,28.5242951 101.797714,28.7402962 C102.202716,28.9562973 102.597587,29.1317955 102.982339,29.2667962 C103.367091,29.4017969 103.849711,29.4692962 104.430214,29.4692962 C105.078218,29.4692962 105.584462,29.3545473 105.948964,29.1250462 C106.313466,28.895545 106.495714,28.5715483 106.495714,28.1530462 C106.495714,27.8830448 106.42484,27.667047 106.283089,27.5050462 C106.141339,27.3430454 105.894966,27.1979218 105.543964,27.0696712 C105.270963,26.9699207 104.895882,26.8640464 104.418715,26.7520464 L103.984714,26.6545462 C102.796708,26.3980449 101.942842,26.0504234 101.423089,25.6116712 C100.903337,25.172919 100.643464,24.57555 100.643464,23.8195462 C100.643464,23.2390433 100.812213,22.7159235 101.149714,22.2501712 C101.487216,21.7844188 101.952961,21.4232975 102.546964,21.1667962 C103.140967,20.9102949 103.815961,20.7820462 104.571964,20.7820462 Z M148.040036,20.8225462 C148.350537,20.8225462 148.59691,20.9102953 148.779161,21.0857962 C148.961412,21.2612971 149.052536,21.5042946 149.052536,21.8147962 L149.052536,30.0565462 C149.052536,30.3400476 148.958037,30.5695453 148.769036,30.7450462 C148.580035,30.9205471 148.330287,31.0082962 148.019786,31.0082962 C147.736284,31.0082962 147.506787,30.923922 147.331286,30.7551712 C147.155785,30.5864203 147.068036,30.3602976 147.068036,30.0767962 L147.068036,29.3072962 C146.757534,29.874299 146.328913,30.3062947 145.782161,30.6032962 C145.235408,30.9002977 144.624539,31.0487962 143.949536,31.0487962 C141.546524,31.0487962 140.345036,29.7258094 140.345036,27.0797962 L140.345036,21.8147962 C140.345036,21.5042946 140.43616,21.2612971 140.618411,21.0857962 C140.800662,20.9102953 141.053784,20.8225462 141.377786,20.8225462 C141.688287,20.8225462 141.93466,20.9102953 142.116911,21.0857962 C142.299162,21.2612971 142.390286,21.5042946 142.390286,21.8147962 L142.390286,27.0595462 C142.390286,27.8560502 142.552284,28.4432943 142.876286,28.8212962 C143.200287,29.1992981 143.699782,29.3882962 144.374786,29.3882962 C145.17129,29.3882962 145.809158,29.1317987 146.288411,28.6187962 C146.767663,28.1057936 147.007286,27.4240504 147.007286,26.5735462 L147.007286,21.8147962 C147.007286,21.5177947 147.101785,21.2781721 147.290786,21.0959212 C147.479787,20.9136703 147.729534,20.8225462 148.040036,20.8225462 Z M152.599179,16.5295462 C152.89618,16.5295462 153.135803,16.6139203 153.318054,16.7826712 C153.500304,16.9514212 153.591429,17.1775448 153.591429,17.4610462 L153.591429,22.6450462 C153.88843,22.0510432 154.320426,21.5920462 154.887429,21.2680462 C155.454431,20.9440446 156.109175,20.7820462 156.851679,20.7820462 C157.715683,20.7820462 158.478425,20.9912941 159.139929,21.4097962 C159.801432,21.8282983 160.317802,22.4222923 160.689054,23.1917962 C161.060305,23.9613 161.245929,24.859041 161.245929,25.8850462 C161.245929,26.8975512 161.060305,27.7952923 160.689054,28.5782962 C160.317802,29.3613001 159.798057,29.968794 159.129804,30.4007962 C158.46155,30.8327983 157.702183,31.0487962 156.851679,31.0487962 C156.109175,31.0487962 155.454431,30.8901728 154.887429,30.5729212 C154.320426,30.2556696 153.88843,29.8000491 153.591429,29.2060462 L153.591429,30.0160462 C153.591429,30.3130477 153.500304,30.5526703 153.318054,30.7349212 C153.135803,30.9171721 152.88943,31.0082962 152.578929,31.0082962 C152.268427,31.0082962 152.01868,30.9171721 151.829679,30.7349212 C151.640678,30.5526703 151.546179,30.3130477 151.546179,30.0160462 L151.546179,17.5015462 C151.546179,17.2045447 151.644053,16.9682971 151.839804,16.7927962 C152.035555,16.6172953 152.288677,16.5295462 152.599179,16.5295462 Z M85.3084286,17.9470462 C85.6189301,17.9470462 85.8686776,18.0347953 86.0576786,18.2102962 C86.2466795,18.3857971 86.3411786,18.6287946 86.3411786,18.9392962 L86.3411786,21.0250462 L88.3459286,21.0250462 C88.62943,21.0250462 88.8488028,21.0959205 89.0040536,21.2376712 C89.1593043,21.3794219 89.2369286,21.571795 89.2369286,21.8147962 C89.2369286,22.0712975 89.1593043,22.2670455 89.0040536,22.4020462 C88.8488028,22.5370469 88.62943,22.6045462 88.3459286,22.6045462 L86.3411786,22.6045462 L86.3411786,27.5050462 C86.3411786,28.1395494 86.4728023,28.6052947 86.7360536,28.9022962 C86.9993049,29.1992977 87.4009259,29.368046 87.9409286,29.4085462 L88.5079286,29.4490462 C88.8049301,29.4760463 89.0175529,29.5536705 89.1458036,29.6819212 C89.2740542,29.8101718 89.3381786,29.989045 89.3381786,30.2185462 C89.3381786,30.4885475 89.2335546,30.6944205 89.0243036,30.8361712 C88.8150525,30.9779219 88.5079306,31.0352963 88.1029286,31.0082962 L87.5561786,30.9677962 C86.4626731,30.8867958 85.6459313,30.5526741 85.1059286,29.9654212 C84.5659259,29.3781682 84.2959286,28.5108019 84.2959286,27.3632962 L84.2959286,22.6045462 L83.0809286,22.6045462 C82.4869256,22.6045462 82.1899286,22.3412988 82.1899286,21.8147962 C82.1899286,21.571795 82.2675528,21.3794219 82.4228036,21.2376712 C82.5780543,21.0959205 82.7974272,21.0250462 83.0809286,21.0250462 L84.2959286,21.0250462 L84.2959286,18.9392962 C84.2959286,18.6287946 84.3870527,18.3857971 84.5693036,18.2102962 C84.7515545,18.0347953 84.997927,17.9470462 85.3084286,17.9470462 Z M59.724,16.6307962 C60.3720032,16.6307962 60.696,16.9142933 60.696,17.4812962 C60.696,18.048299 60.3720032,18.3317962 59.724,18.3317962 L53.50725,18.3317962 L53.50725,22.8070462 L59.319,22.8070462 C59.9670032,22.8070462 60.291,23.0905433 60.291,23.6575462 C60.291,24.2245462 59.9670032,24.5080462 59.319,24.5080462 L53.50725,24.5080462 L53.50725,29.9552962 C53.50725,30.2792978 53.4161259,30.5357952 53.233875,30.7247962 C53.0516241,30.9137971 52.7985016,31.0082962 52.4745,31.0082962 C52.1639984,31.0082962 51.9142509,30.9104222 51.72525,30.7146712 C51.5362491,30.5189202 51.44175,30.2657977 51.44175,29.9552962 L51.44175,17.6432962 C51.44175,17.3327946 51.5328741,17.0864221 51.715125,16.9041712 C51.8973759,16.7219203 52.1504984,16.6307962 52.4745,16.6307962 L59.724,16.6307962 Z M77.6915357,20.7820462 C80.0540475,20.7820462 81.2352857,22.1117829 81.2352857,24.7712962 L81.2352857,30.0362962 C81.2352857,30.3467977 81.1441616,30.5864203 80.9619107,30.7551712 C80.7796598,30.923922 80.5265373,31.0082962 80.2025357,31.0082962 C79.8920342,31.0082962 79.6456616,30.9205471 79.4634107,30.7450462 C79.2811598,30.5695453 79.1900357,30.3332977 79.1900357,30.0362962 L79.1900357,24.8725462 C79.1900357,24.035542 79.0246624,23.4212981 78.6939107,23.0297962 C78.3631591,22.6382942 77.8467892,22.4425462 77.1447857,22.4425462 C76.3212816,22.4425462 75.6597882,22.6990436 75.1602857,23.2120462 C74.6607832,23.7250487 74.4110357,24.4135419 74.4110357,25.2775462 L74.4110357,30.0362962 C74.4110357,30.3332977 74.3199116,30.5695453 74.1376607,30.7450462 C73.9554098,30.9205471 73.7090373,31.0082962 73.3985357,31.0082962 C73.0880342,31.0082962 72.8382867,30.9205471 72.6492857,30.7450462 C72.4602848,30.5695453 72.3657857,30.3332977 72.3657857,30.0362962 L72.3657857,21.7945462 C72.3657857,21.5110448 72.4636597,21.2781721 72.6594107,21.0959212 C72.8551617,20.9136703 73.1015342,20.8225462 73.3985357,20.8225462 C73.6955372,20.8225462 73.9317848,20.9102953 74.1072857,21.0857962 C74.2827866,21.2612971 74.3705357,21.4907948 74.3705357,21.7742962 L74.3705357,22.6045462 C74.6945373,22.0105432 75.1467828,21.5582977 75.7272857,21.2477962 C76.3077886,20.9372946 76.9625321,20.7820462 77.6915357,20.7820462 Z M136.636393,16.5295462 C136.946894,16.5295462 137.196642,16.6274202 137.385643,16.8231712 C137.574644,17.0189222 137.669143,17.2720446 137.669143,17.5825462 L137.669143,29.9552962 C137.669143,30.2657977 137.574644,30.5189202 137.385643,30.7146712 C137.196642,30.9104222 136.946894,31.0082962 136.636393,31.0082962 C136.325891,31.0082962 136.076144,30.9137971 135.887143,30.7247962 C135.698142,30.5357952 135.603643,30.2792978 135.603643,29.9552962 L135.603643,24.5080462 L127.625143,24.5080462 L127.625143,29.9552962 C127.625143,30.2657977 127.530644,30.5189202 127.341643,30.7146712 C127.152642,30.9104222 126.902894,31.0082962 126.592393,31.0082962 C126.281891,31.0082962 126.032144,30.9137971 125.843143,30.7247962 C125.654142,30.5357952 125.559643,30.2792978 125.559643,29.9552962 L125.559643,17.5825462 C125.559643,17.2720446 125.654142,17.0189222 125.843143,16.8231712 C126.032144,16.6274202 126.281891,16.5295462 126.592393,16.5295462 C126.902894,16.5295462 127.152642,16.6274202 127.341643,16.8231712 C127.530644,17.0189222 127.625143,17.2720446 127.625143,17.5825462 L127.625143,22.8070462 L135.603643,22.8070462 L135.603643,17.5825462 C135.603643,17.2720446 135.698142,17.0189222 135.887143,16.8231712 C136.076144,16.6274202 136.325891,16.5295462 136.636393,16.5295462 Z M67.9483929,26.2900462 L67.5838929,26.2900462 C66.5308876,26.2900462 65.7208957,26.3372957 65.1538929,26.4317962 C64.58689,26.5262967 64.1818941,26.6849201 63.9388929,26.9076712 C63.6958916,27.1304223 63.5743929,27.4510441 63.5743929,27.8695462 C63.5743929,28.3555486 63.7498911,28.7537946 64.1008929,29.0642962 C64.4518946,29.3747977 64.8906402,29.5300462 65.4171429,29.5300462 C66.1596466,29.5300462 66.7671405,29.2769237 67.2396429,28.7706712 C67.7121452,28.2644186 67.9483929,27.6130502 67.9483929,26.8165462 L67.9483929,26.2900462 Z M96.5095714,26.2900462 L96.1450714,26.2900462 C95.0920662,26.2900462 94.2820743,26.3372957 93.7150714,26.4317962 C93.1480686,26.5262967 92.7430726,26.6849201 92.5000714,26.9076712 C92.2570702,27.1304223 92.1355714,27.4510441 92.1355714,27.8695462 C92.1355714,28.3555486 92.3110697,28.7537946 92.6620714,29.0642962 C93.0130732,29.3747977 93.4518188,29.5300462 93.9783214,29.5300462 C94.7208251,29.5300462 95.3283191,29.2769237 95.8008214,28.7706712 C96.2733238,28.2644186 96.5095714,27.6130502 96.5095714,26.8165462 L96.5095714,26.2900462 Z M156.365679,22.4222962 C155.474674,22.4222962 154.789556,22.7260431 154.310304,23.3335462 C153.831051,23.9410492 153.591429,24.8050406 153.591429,25.9255462 C153.591429,27.0460518 153.831051,27.9100431 154.310304,28.5175462 C154.789556,29.1250492 155.474674,29.4287962 156.365679,29.4287962 C157.243183,29.4287962 157.928301,29.1182993 158.421054,28.4972962 C158.913806,27.8762931 159.160179,27.0055518 159.160179,25.8850462 C159.160179,24.7780406 158.917181,23.9241742 158.431179,23.3234212 C157.945176,22.7226682 157.256683,22.4222962 156.365679,22.4222962 Z" id="Combined-Shape" fill="#062F4F" fill-rule="nonzero"></path>
                </g>
            </g>
        </g>
    </g>
</svg>